# xmcd
#
# Track frame offsets: 
#        150
#        16278
#        40715
#        63878
#        99151
#        125767
#        141006
#        180483
#        200353
#        221632
#
# Disc length: 3214 seconds
#
# Revision: 1
# Processed by: cddbd v1.5.2PL0 Copyright (c) Steve Scherf et al.
# Submitted via: ExactAudioCopy v0.99pb4
#
DISCID=830c8c0a
DTITLE=Laurent Coq Blowing Trio - The Thing To Share
DYEAR=2006
DGENRE=Jazz
TTITLE0=Cradle song
TTITLE1=257 Church St
TTITLE2=Ballad of Hix Blewwitt
TTITLE3=David's mood
TTITLE4=Laurent's mood
TTITLE5=Clair de lune
TTITLE6=Olivier's mood
TTITLE7=Monk's mood
TTITLE8=Seaweed's dance
TTITLE9=The world belongs to those who dare
EXTD=
EXTT0=
EXTT1=
EXTT2=
EXTT3=
EXTT4=
EXTT5=
EXTT6=
EXTT7=
EXTT8=
EXTT9=
PLAYORDER=
